<svg width="89" height="30" viewBox="0 0 89 30" fill="none" xmlns="http://www.w3.org/2000/svg">
<g clip-path="url(#clip0_1_439)">
<path d="M6.03477 29.8906H5.40243C4.98088 29.8906 4.45393 29.8906 4.03237 29.7852C3.50543 29.6797 3.08387 29.5743 2.66231 29.3633C2.24076 29.1524 1.92459 28.9415 1.60842 28.6252C1.29225 28.3088 1.08147 27.9924 0.870696 27.5706C0.659918 27.1488 0.554528 26.727 0.449139 26.3052C0.449139 25.7779 0.34375 25.3561 0.34375 24.8288V5.95244C0.34375 5.42517 0.34375 5.00335 0.449139 4.58153C0.554528 4.05426 0.659918 3.63244 0.870696 3.31608C1.08147 2.89426 1.29225 2.5779 1.60842 2.26153C1.92459 1.94517 2.24076 1.73426 2.66231 1.52335C3.08387 1.20699 3.50543 1.10153 3.92698 0.99608C4.34854 0.99608 4.87549 0.890625 5.29704 0.890625H83.2851C83.7066 0.890625 84.2336 0.890625 84.6551 0.99608C85.0767 1.10153 85.4982 1.20699 85.9198 1.4179C86.6575 1.83972 87.2899 2.47244 87.7114 3.21062C87.9222 3.63244 88.0276 4.05426 88.133 4.47608C88.2384 4.8979 88.2384 5.42517 88.2384 5.95244V24.9343C88.2384 25.3561 88.2384 25.8834 88.133 26.3052C88.0276 26.727 87.9222 27.1488 87.7114 27.5706C87.5006 27.9924 87.2899 28.3088 86.9737 28.6252C86.6575 28.9415 86.3414 29.1524 85.9198 29.3633C85.4982 29.5743 85.0767 29.6797 84.6551 29.7852C84.2336 29.8906 83.7066 29.8906 83.2851 29.8906H6.03477Z" fill="black"/>
<path d="M28.6934 6.58493C29.3258 6.58493 29.8527 6.79584 30.2743 7.21766C30.6958 7.63948 30.9066 8.27221 30.8012 8.79948C30.8012 10.2758 30.0635 11.014 28.6934 11.014H27.1126V6.58493H28.6934ZM27.7449 10.4868H28.5881C29.0096 10.4868 29.4312 10.3813 29.642 10.0649C29.9581 9.74857 30.0635 9.32675 29.9581 8.90493C30.0635 8.48311 29.8527 8.0613 29.642 7.74493C29.3258 7.42857 29.0096 7.21766 28.5881 7.32311H27.7449V10.4868ZM31.539 9.43221C31.4336 8.79948 31.7497 8.27221 32.2767 7.95584C32.8036 7.63948 33.436 7.63948 33.9629 7.95584C34.4899 8.27221 34.806 8.90493 34.7006 9.43221C34.806 10.0649 34.4899 10.5922 33.9629 10.9086C33.436 11.2249 32.8036 11.2249 32.2767 10.9086C31.7497 10.5922 31.4336 9.95948 31.539 9.43221ZM33.9629 9.43221C33.9629 8.69402 33.6467 8.27221 33.0144 8.27221C32.4875 8.27221 32.1713 8.69402 32.1713 9.43221C32.1713 10.1704 32.4875 10.5922 33.0144 10.5922C33.6467 10.5922 33.9629 10.1704 33.9629 9.43221ZM38.8108 11.1195H38.0731L37.4408 8.58857H37.3354L36.703 11.1195H35.9653L35.1222 7.74493H35.7545L36.3869 10.2758L37.1246 7.74493H37.7569L38.3893 10.2758H38.4946L39.0216 7.74493H39.6539L38.8108 11.1195ZM40.497 7.74493H41.1294V8.27221C41.3402 7.85039 41.6563 7.63948 42.0779 7.63948C42.3941 7.63948 42.7102 7.74493 42.921 7.95584C43.1318 8.16675 43.2372 8.58857 43.2372 8.90493V11.1195H42.6048V9.11584C42.6048 8.58857 42.3941 8.27221 41.8671 8.27221C41.6563 8.27221 41.4455 8.37766 41.2348 8.48311C41.1294 8.69402 41.024 8.90493 41.024 9.11584V11.1195H40.3917V7.74493H40.497ZM44.2911 6.37402H45.0288V11.1195H44.2911V6.37402ZM45.8719 9.43221C45.7665 8.79948 46.0827 8.27221 46.6096 7.95584C47.1366 7.63948 47.7689 7.63948 48.2958 7.95584C48.8228 8.27221 49.139 8.90493 49.0336 9.43221C49.139 10.0649 48.8228 10.5922 48.2958 10.9086C47.7689 11.2249 47.1366 11.2249 46.6096 10.9086C46.0827 10.5922 45.8719 9.95948 45.8719 9.43221ZM48.4012 9.43221C48.4012 8.69402 48.0851 8.27221 47.5581 8.27221C47.0312 8.27221 46.715 8.69402 46.715 9.43221C46.715 10.1704 47.0312 10.5922 47.5581 10.5922C48.0851 10.5922 48.4012 10.1704 48.4012 9.43221ZM49.7713 10.1704C49.7713 9.53766 50.1929 9.2213 51.036 9.11584L51.9845 9.01039V8.79948C51.9845 8.48311 51.7737 8.27221 51.3521 8.27221C51.036 8.27221 50.7198 8.37766 50.6144 8.69402H49.8767C49.9821 8.0613 50.509 7.74493 51.2467 7.74493C52.0899 7.74493 52.5114 8.16675 52.5114 8.90493V11.2249H51.8791V10.5922C51.6683 10.9086 51.2467 11.1195 50.9306 11.1195C50.6144 11.1195 50.4036 11.014 50.1929 10.9086C49.8767 10.6977 49.7713 10.3813 49.7713 10.1704ZM51.8791 9.85402V9.53766L51.036 9.64311C50.6144 9.64311 50.4036 9.85402 50.4036 10.1704C50.4036 10.4868 50.6144 10.6977 51.036 10.6977C51.2467 10.6977 51.4575 10.6977 51.6683 10.4868C51.7737 10.2758 51.8791 10.0649 51.8791 9.85402ZM53.3545 9.43221C53.3545 8.37766 53.8815 7.63948 54.7246 7.63948C55.1461 7.63948 55.5677 7.85039 55.7785 8.27221V6.37402H56.4108V11.1195H55.7785V10.5922C55.5677 11.014 55.1461 11.2249 54.7246 11.2249C53.8815 11.1195 53.3545 10.4868 53.3545 9.43221ZM54.0923 9.43221C54.0923 10.1704 54.4084 10.5922 54.9354 10.5922C55.4623 10.5922 55.7785 10.1704 55.7785 9.43221C55.7785 8.69402 55.4623 8.27221 54.9354 8.27221C54.4084 8.27221 54.0923 8.69402 54.0923 9.43221ZM59.1509 9.43221C59.0456 8.79948 59.3617 8.27221 59.8887 7.95584C60.4156 7.63948 61.0479 7.63948 61.5749 7.95584C62.1018 8.27221 62.418 8.90493 62.3126 9.43221C62.418 10.0649 62.1018 10.5922 61.5749 10.9086C61.0479 11.2249 60.4156 11.2249 59.8887 10.9086C59.4671 10.5922 59.1509 9.95948 59.1509 9.43221ZM61.6803 9.43221C61.6803 8.69402 61.3641 8.27221 60.8372 8.27221C60.3102 8.27221 59.9941 8.69402 59.9941 9.43221C59.9941 10.1704 60.3102 10.5922 60.8372 10.5922C61.3641 10.5922 61.6803 10.1704 61.6803 9.43221ZM63.1557 7.74493H63.7881V8.27221C63.9988 7.85039 64.315 7.63948 64.7366 7.63948C65.0527 7.63948 65.3689 7.74493 65.5797 7.95584C65.7905 8.16675 65.8959 8.58857 65.8959 8.90493V11.1195H65.2635V9.11584C65.3689 8.48311 65.1581 8.27221 64.6312 8.27221C64.4204 8.27221 64.2096 8.37766 63.9988 8.48311C63.8935 8.69402 63.7881 8.90493 63.7881 9.11584V11.1195H63.1557V7.74493ZM69.6899 6.9013V7.74493H70.4276V8.27221H69.6899V10.0649C69.6899 10.3813 69.7952 10.5922 70.1114 10.5922H70.3222V11.1195H70.006C69.2683 11.1195 68.9521 10.9086 68.9521 10.1704V8.27221H68.4252V7.74493H68.9521V6.9013H69.6899ZM71.3761 6.37402H72.0084V8.27221C72.2192 7.85039 72.6408 7.63948 73.0623 7.63948C73.3785 7.63948 73.6947 7.74493 73.9054 7.95584C74.1162 8.16675 74.2216 8.48311 74.2216 8.90493V11.1195H73.5893V9.11584C73.5893 8.58857 73.3785 8.27221 72.8515 8.27221C72.6408 8.27221 72.43 8.37766 72.2192 8.48311C72.1138 8.69402 72.0084 8.90493 72.0084 9.11584V11.1195H71.3761V6.37402ZM78.0156 10.1704C77.8048 10.8031 77.2779 11.2249 76.5402 11.1195C76.1186 11.1195 75.697 10.9086 75.3809 10.5922C75.0647 10.2758 74.9593 9.85402 74.9593 9.32675C74.8539 8.90493 75.0647 8.37766 75.3809 8.0613C75.697 7.74493 76.1186 7.53402 76.5402 7.53402C77.4887 7.53402 78.0156 8.16675 78.0156 9.2213V9.43221H75.697C75.697 9.64311 75.8024 9.95948 75.9078 10.1704C76.1186 10.3813 76.3294 10.4868 76.5402 10.4868C76.8563 10.4868 77.1725 10.3813 77.2779 10.0649L78.0156 10.1704ZM75.697 9.11584H77.3833C77.3833 8.90493 77.2779 8.69402 77.1725 8.48311C77.0671 8.27221 76.7509 8.27221 76.5402 8.27221C76.3294 8.27221 76.1186 8.37766 75.9078 8.48311C75.697 8.58857 75.697 8.79948 75.697 9.11584ZM18.1545 15.0213C18.1545 13.7558 18.7869 12.7013 19.9461 11.9631C19.3138 11.014 18.1545 10.4868 16.9952 10.3813C15.7306 10.2758 14.5713 11.1195 13.939 11.1195C13.3066 11.1195 12.3581 10.3813 11.1988 10.3813C9.82878 10.3813 8.56411 11.2249 7.82638 12.3849C6.35093 14.8104 7.51021 18.3958 8.88027 20.294C9.618 21.2431 10.3557 22.2977 11.4096 22.2977C12.4635 22.2977 12.7797 21.6649 14.0443 21.6649C15.309 21.6649 15.6252 22.2977 16.6791 22.2977C17.8384 22.2977 18.4707 21.3486 19.103 20.3995C19.63 19.7668 19.9461 18.9231 20.2623 18.1849C18.9976 17.6577 18.1545 16.3922 18.1545 15.0213ZM16.1521 9.11584C16.7845 8.37766 17.1006 7.53402 16.9952 6.58493C16.0467 6.69039 15.2036 7.11221 14.5713 7.74493C13.939 8.37766 13.6228 9.32675 13.7282 10.1704C14.6767 10.2758 15.5198 9.85402 16.1521 9.11584ZM31.2228 19.9777H27.7449L26.9018 22.4031H25.4264L28.7988 13.4395H30.3797L33.7521 22.4031H32.2767L31.2228 19.9777ZM28.0611 18.8177H30.9066L29.5366 14.9158L28.0611 18.8177ZM40.8132 19.134C40.8132 21.1377 39.6539 22.5086 37.9677 22.5086C37.1246 22.5086 36.2815 22.0868 35.8599 21.3486V24.6177H34.4899V15.8649H35.8599V16.9195C36.2815 16.1813 37.1246 15.7595 37.9677 15.7595C39.6539 15.7595 40.8132 17.0249 40.8132 19.134ZM39.3378 19.134C39.3378 17.7631 38.6 16.9195 37.5461 16.9195C36.4923 16.9195 35.7545 17.7631 35.7545 19.134C35.7545 20.5049 36.4923 21.3486 37.5461 21.3486C38.7054 21.3486 39.3378 20.3995 39.3378 19.134ZM48.1905 19.134C48.1905 21.1377 47.0312 22.5086 45.345 22.5086C44.5018 22.5086 43.6587 22.0868 43.2372 21.3486V24.6177H41.8671V15.8649H43.2372V16.9195C43.6587 16.1813 44.5018 15.7595 45.345 15.7595C47.1366 15.7595 48.1905 17.0249 48.1905 19.134ZM46.8204 19.134C46.8204 17.7631 46.0827 16.9195 45.0288 16.9195C43.9749 16.9195 43.2372 17.7631 43.2372 19.134C43.2372 20.5049 43.9749 21.3486 45.0288 21.3486C46.0827 21.3486 46.8204 20.3995 46.8204 19.134ZM53.1438 19.8722C53.2491 20.7158 54.0923 21.3486 55.3569 21.3486C56.5162 21.3486 57.3593 20.7158 57.3593 19.9777C57.3593 19.2395 56.8324 18.8177 55.6731 18.6067L54.5138 18.2904C52.8276 17.8686 51.9845 17.1304 51.9845 15.8649C51.9845 14.2831 53.3545 13.2286 55.3569 13.2286C57.3593 13.2286 58.624 14.2831 58.7294 15.8649H57.2539C57.1485 14.9158 56.4108 14.3886 55.2515 14.3886C54.0923 14.3886 53.3545 14.9158 53.3545 15.7595C53.3545 16.3922 53.8815 16.814 55.0408 17.0249L56.0947 17.2358C57.9917 17.6577 58.7294 18.3958 58.7294 19.7667C58.7294 21.454 57.3593 22.5086 55.1461 22.5086C53.1438 22.5086 51.6683 21.454 51.6683 19.8722H53.1438ZM61.7857 14.2831V15.8649H63.0503V16.9195H61.7857V20.5049C61.7857 21.0322 61.9964 21.3486 62.6288 21.3486H63.0503V22.4031C62.8396 22.4031 62.5234 22.5086 62.3126 22.5086C60.9426 22.5086 60.4156 21.9813 60.4156 20.7158V16.9195H59.4671V15.8649H60.4156V14.2831H61.7857ZM63.7881 19.134C63.7881 17.0249 65.0527 15.7595 66.9497 15.7595C68.9521 15.7595 70.1114 17.0249 70.1114 19.134C70.1114 21.2431 68.8468 22.5086 66.9497 22.5086C65.0527 22.4031 63.7881 21.1377 63.7881 19.134ZM68.8468 19.134C68.8468 17.7631 68.2144 16.9195 67.0551 16.9195C65.8959 16.9195 65.2635 17.7631 65.2635 19.134C65.2635 20.5049 65.8959 21.3486 67.0551 21.3486C68.109 21.3486 68.8468 20.5049 68.8468 19.134ZM71.3761 15.7595H72.7461V16.9195C72.9569 16.1813 73.5893 15.654 74.327 15.7595H74.8539V17.0249C74.6432 16.9195 74.4324 16.9195 74.2216 16.9195C73.8 16.9195 73.3785 17.0249 73.1677 17.3413C72.8515 17.6577 72.7462 17.974 72.8515 18.3958V22.2977H71.4815V15.7595H71.3761ZM81.1773 20.3995C80.9665 21.5595 79.8072 22.4031 78.2264 22.4031C76.224 22.4031 75.0647 21.1377 75.0647 19.0286C75.0647 16.9195 76.3294 15.654 78.2264 15.654C80.1234 15.654 81.2827 16.9195 81.2827 18.9231V19.3449H76.5402V19.4504C76.5402 19.9777 76.6456 20.3995 77.0671 20.8213C77.3833 21.1377 77.9102 21.3486 78.4372 21.3486C79.0695 21.454 79.7018 21.0322 80.018 20.3995H81.1773ZM76.5402 18.5013H79.9126C79.9126 18.0795 79.8072 17.6577 79.4911 17.3413C79.1749 17.0249 78.7533 16.814 78.3318 16.814C77.9102 16.814 77.4887 17.0249 77.0671 17.3413C76.6456 17.6577 76.5402 18.0795 76.5402 18.5013Z" fill="white"/>
</g>
<defs>
<clipPath id="clip0_1_439">
<rect width="88" height="29" fill="white" transform="translate(0.34375 0.890625)"/>
</clipPath>
</defs>
</svg>
