<svg width="19" height="31" viewBox="0 0 19 31" fill="none" xmlns="http://www.w3.org/2000/svg">
<g clip-path="url(#clip0_1_444)">
<path d="M7.59303 24V17.6722H5.3142V15.0557H7.5838C7.62071 13.1165 7.24244 10.9175 9.34598 9.87835C10.4623 9.32165 11.8739 9.58144 13.0179 9.72062V11.9474C12.04 11.9474 11.1912 11.8082 10.6838 12.4577C10.2963 12.9495 10.4254 14.3134 10.4254 15.0557H12.9165L12.5197 17.6722L10.4162 17.6814V24C10.6653 24 11.0712 23.8794 11.2927 23.8237C11.5879 23.7495 11.837 23.666 12.123 23.5639C13.0733 23.2392 14.0882 22.6082 14.8355 21.9773C15.3244 21.5598 15.7673 21.0959 16.1548 20.5856C17.0866 19.3237 17.6863 17.9969 17.9262 16.4196C17.9631 16.1598 17.9908 15.8907 18.0092 15.6309V14.4619C17.9539 13.5155 17.7417 12.5876 17.3911 11.7062C17.0313 10.7784 16.5146 9.92474 15.8688 9.16392C15.8134 9.09897 15.795 9.08969 15.7304 9.01546C15.4721 8.69072 15.1861 8.45876 14.9185 8.20825L14.0143 7.49381C13.0917 6.88144 12.0677 6.43608 10.979 6.19485C10.4346 6.08351 9.88109 6.01856 9.3183 6H8.69093C8.13736 6.00928 7.59303 6.08351 7.04869 6.19485C6.49513 6.32474 5.95079 6.50103 5.42491 6.72371C4.93593 6.93711 4.47463 7.18763 4.03178 7.47526L3.26602 8.05052C2.51871 8.66289 1.88211 9.3866 1.36545 10.2124C1.04254 10.732 1.05177 10.7505 0.793439 11.2701C0.636597 11.6505 0.48898 12.0495 0.369041 12.4485C0.156843 13.1072 0.0369041 13.7938 0 14.4897V15.5196C0.0276781 16.0948 0.110712 16.6701 0.249103 17.2361C0.378267 17.7835 0.562788 18.3216 0.802665 18.832C1.08867 19.4072 1.18093 19.6577 1.5961 20.2237C2.22347 21.0959 2.37109 21.2258 3.12763 21.9309C3.17376 21.968 3.21989 22.0144 3.26602 22.0423C3.3306 22.0887 3.34905 22.1165 3.41363 22.1722C3.52435 22.2649 3.61661 22.3299 3.73654 22.4134C4.64992 23.0443 5.58175 23.5361 6.67965 23.8052C6.92875 23.8701 7.34393 24 7.59303 24Z" fill="black"/>
</g>
<defs>
<clipPath id="clip0_1_444">
<rect width="18" height="18" fill="white" transform="translate(0 6)"/>
</clipPath>
</defs>
</svg>
