<svg width="89" height="31" viewBox="0 0 89 31" fill="none" xmlns="http://www.w3.org/2000/svg">
<g clip-path="url(#clip0_1_419)">
<path d="M85.057 30.8906H3.6305C1.82809 30.8906 0.34375 29.2835 0.34375 27.1406V4.64062C0.34375 2.49777 1.82809 0.890625 3.6305 0.890625H85.163C86.8594 0.890625 88.3438 2.49777 88.3438 4.64062V27.1406C88.3438 29.1763 86.8594 30.8906 85.057 30.8906Z" fill="black"/>
<path d="M27.91 8.4977C27.91 8.92627 27.804 9.35484 27.4859 9.56913C27.0618 9.89056 26.6377 9.9977 26.0016 9.9977C25.3654 9.9977 24.9413 9.78341 24.5172 9.56913C24.0932 9.2477 23.8811 8.81913 23.8811 8.39056C23.8811 7.96198 24.0932 7.53341 24.5172 7.21198C24.9413 6.89056 25.3654 6.67627 26.0016 6.67627C26.2136 6.67627 26.5317 6.78341 26.8498 6.89056C27.1679 6.9977 27.2739 7.10484 27.4859 7.21198L27.1678 7.42627C26.9558 7.21198 26.5317 7.10484 26.1076 7.10484C25.6835 7.10484 25.2594 7.21198 25.0474 7.42627C24.7293 7.64056 24.6233 7.96198 24.6233 8.39056C24.6233 8.71198 24.7293 9.03341 25.0474 9.2477C25.3654 9.46198 25.6835 9.56913 26.1076 9.56913C26.5317 9.56913 26.9558 9.46198 27.2739 9.2477C27.4859 9.03341 27.5919 8.92627 27.5919 8.60484H26.1076V8.28341H27.91V8.4977Z" fill="white" stroke="white" stroke-width="0.2"/>
<path d="M30.9847 7.10512H29.1823V8.17655H30.8787V8.60512H29.1823V9.56941H30.9847V9.99798H28.6522V6.78369H30.9847V7.10512Z" fill="white" stroke="white" stroke-width="0.2"/>
<path d="M33.1052 9.99798H32.5751V7.10512H31.5148V6.78369H34.2715V7.10512H33.1052V9.99798Z" fill="white" stroke="white" stroke-width="0.2"/>
<path d="M36.1799 9.99798V6.78369H36.71V9.99798H36.1799Z" fill="white" stroke="white" stroke-width="0.2"/>
<path d="M38.9365 9.99798H38.4064V7.10512H37.3462V6.78369H39.9968V7.10512H38.9365V9.99798Z" fill="white" stroke="white" stroke-width="0.2"/>
<path d="M45.298 9.56913C44.8739 9.89056 44.4498 10.1048 43.8136 10.1048C43.1775 10.1048 42.7534 9.89055 42.3293 9.67627C41.9052 9.35484 41.6931 8.92627 41.6931 8.4977C41.6931 8.06913 41.9052 7.64056 42.3293 7.31913C42.7534 6.89056 43.1775 6.67627 43.8136 6.67627C44.4498 6.67627 44.8739 6.89056 45.298 7.21198C45.7221 7.53341 45.9341 7.96198 45.9341 8.39055C45.9341 8.81913 45.7221 9.2477 45.298 9.56913ZM42.7534 9.2477C42.9654 9.46198 43.3895 9.56913 43.8136 9.56913C44.2377 9.56913 44.6618 9.46198 44.8739 9.2477C45.0859 9.03341 45.298 8.71198 45.298 8.39055C45.298 8.06913 45.1919 7.64055 44.8739 7.53341C44.6618 7.31913 44.2377 7.21198 43.8136 7.21198C43.3895 7.21198 42.9654 7.31913 42.7534 7.53341C42.5413 7.7477 42.3293 8.06913 42.3293 8.39055C42.3293 8.71198 42.4353 9.14055 42.7534 9.2477Z" fill="white" stroke="white" stroke-width="0.2"/>
<path d="M46.5703 9.99798V6.78369H47.2064L49.1148 9.24798V6.78369H49.645V9.99798H49.1148L47.1004 7.42655V9.99798H46.5703Z" fill="white" stroke="white" stroke-width="0.2"/>
<path d="M40.951 16.7476C39.4667 16.7476 38.1944 17.9261 38.1944 19.4261C38.1944 20.9261 39.3606 22.1047 40.951 22.1047C42.5414 22.1047 43.7076 20.9261 43.7076 19.4261C43.7076 17.819 42.4353 16.7476 40.951 16.7476ZM40.951 21.0333C40.1028 21.0333 39.4667 20.2833 39.4667 19.4261C39.4667 18.4618 40.2088 17.819 40.951 17.819C41.6932 17.819 42.4353 18.4618 42.4353 19.4261C42.4353 20.3904 41.7992 21.0333 40.951 21.0333ZM35.0136 16.7476C33.5293 16.7476 32.257 17.9261 32.257 19.4261C32.257 20.9261 33.4233 22.1047 35.0136 22.1047C36.604 22.1047 37.7703 20.9261 37.7703 19.4261C37.7703 17.819 36.498 16.7476 35.0136 16.7476ZM35.0136 21.0333C34.1655 21.0333 33.5293 20.2833 33.5293 19.4261C33.5293 18.4618 34.2715 17.819 35.0136 17.819C35.7558 17.819 36.498 18.4618 36.498 19.4261C36.498 20.3904 35.8618 21.0333 35.0136 21.0333ZM27.91 17.6047V18.7833H30.6667C30.5606 19.4261 30.3486 19.9618 30.0305 20.2833C29.6064 20.7118 28.9703 21.1404 27.91 21.1404C26.2136 21.1404 24.9414 19.8547 24.9414 18.1404C24.9414 16.4261 26.3197 15.1404 27.91 15.1404C28.7582 15.1404 29.5004 15.569 30.0305 15.9976L30.8787 15.1404C30.1365 14.2833 29.1823 13.7476 27.91 13.7476C25.5775 13.7476 23.6691 15.6761 23.6691 17.9261C23.6691 20.1761 25.6835 22.1047 27.91 22.1047C29.1823 22.1047 30.0305 21.6761 30.8787 20.9261C31.6209 20.1761 31.9389 19.1047 31.9389 18.2476C31.9389 18.0333 31.9389 17.7118 31.8329 17.4976H27.91V17.6047ZM56.8546 18.4618C56.6426 17.819 56.0064 16.7476 54.5221 16.7476C53.1438 16.7476 51.9775 17.819 51.9775 19.4261C51.9775 20.9261 53.1438 22.1047 54.6281 22.1047C55.7944 22.1047 56.6426 21.3547 56.8546 20.9261L56.0064 20.2833C55.6883 20.7118 55.2642 21.0333 54.6281 21.0333C53.992 21.0333 53.5679 20.819 53.2498 20.1761L56.8546 18.6761V18.4618ZM53.2498 19.319C53.2498 18.3547 54.098 17.7118 54.6281 17.7118C55.0522 17.7118 55.4763 17.9261 55.6883 18.2476L53.2498 19.319ZM50.1751 21.8904H51.3414V13.9618H50.1751V21.8904ZM48.2667 17.2833C47.9486 16.9618 47.4185 16.6404 46.7823 16.6404C45.404 16.6404 44.1317 17.819 44.1317 19.319C44.1317 20.819 45.298 21.9976 46.7823 21.9976C47.4185 21.9976 47.9486 21.6761 48.1606 21.3547H48.2667V21.7833C48.2667 22.7476 47.7365 23.3904 46.7823 23.3904C46.0402 23.3904 45.6161 22.8547 45.404 22.4261L44.3438 22.8547C44.6618 23.6047 45.404 24.4618 46.7823 24.4618C48.1606 24.4618 49.3269 23.6047 49.3269 21.6761V16.8547H48.1606V17.2833H48.2667ZM46.8883 21.0333C46.0402 21.0333 45.404 20.2833 45.404 19.4261C45.404 18.4618 46.1462 17.819 46.8883 17.819C47.7365 17.819 48.3727 18.569 48.3727 19.4261C48.3727 20.3904 47.7365 21.0333 46.8883 21.0333ZM62.4739 13.9618H59.6112V21.8904H60.7775V18.8904H62.4739C63.8522 18.8904 65.1245 17.9261 65.1245 16.4261C65.1245 14.9261 63.8522 13.9618 62.4739 13.9618ZM62.5799 17.819H60.7775V15.1404H62.4739C63.3221 15.1404 63.8522 15.8904 63.8522 16.4261C63.8522 17.069 63.3221 17.819 62.5799 17.819ZM69.8956 16.6404C69.0474 16.6404 68.0932 17.069 67.7751 17.819L68.8353 18.2476C69.0474 17.819 69.4715 17.7118 69.8956 17.7118C70.5317 17.7118 71.0618 18.1404 71.1679 18.6761V18.7833C70.9558 18.6761 70.4257 18.4618 70.0016 18.4618C68.8353 18.4618 67.6691 19.1047 67.6691 20.2833C67.6691 21.3547 68.6233 22.1047 69.6835 22.1047C70.5317 22.1047 70.8498 21.6761 71.1679 21.3547H71.2739V21.9976H72.4402V18.9976C72.3341 17.4976 71.2739 16.6404 69.8956 16.6404ZM69.7896 21.0333C69.3655 21.0333 68.8353 20.819 68.8353 20.2833C68.8353 19.6404 69.5775 19.4261 70.1076 19.4261C70.6377 19.4261 70.8498 19.5333 71.1679 19.6404C71.0618 20.4976 70.4257 21.0333 69.7896 21.0333ZM76.4691 16.8547L75.0908 20.2833H74.9847L73.6064 16.8547H72.3341L74.4546 21.6761L73.2883 24.3547H74.4546L77.7414 16.8547H76.4691ZM65.7606 21.8904H66.9269V13.9618H65.7606V21.8904Z" fill="white"/>
<path d="M5.43291 7.64062C5.32689 7.85491 5.11484 8.17634 5.11484 8.60491V23.3906C5.11484 23.8192 5.22086 24.1406 5.43291 24.3549L5.53893 24.4621L13.3847 16.2121V15.8906L5.43291 7.64062Z" fill="url(#paint0_linear_1_419)"/>
<path d="M15.9293 18.8907L13.3847 16.105V15.8907L15.9293 13.105L16.0353 13.2121L19.11 15.0336C19.9582 15.5693 19.9582 16.4264 19.11 16.9621L15.9293 18.8907Z" fill="url(#paint1_linear_1_419)"/>
<path d="M16.0353 18.7833L13.3847 15.9976L5.53894 24.3547C5.85701 24.6761 6.28111 24.6761 6.81123 24.4618L16.0353 18.7833Z" fill="url(#paint2_linear_1_419)"/>
<path d="M16.0353 13.2123L6.81124 7.64085C6.17509 7.31943 5.75099 7.42657 5.43292 7.748L13.2787 15.998L16.0353 13.2123Z" fill="url(#paint3_linear_1_419)"/>
<path opacity="0.2" d="M15.9293 18.7837L6.81124 24.248C6.28111 24.5694 5.85702 24.4623 5.53895 24.248L5.43292 24.3551L5.53895 24.4623C5.85702 24.6765 6.28111 24.7837 6.81124 24.4623L15.9293 18.7837Z" fill="black"/>
<path opacity="0.12" d="M5.4329 24.248C5.22086 24.0337 5.22086 23.7123 5.22086 23.2837V23.3908C5.22086 23.7123 5.32688 24.0337 5.4329 24.248Z" fill="black"/>
<path opacity="0.12" d="M19.11 16.8547L15.9293 18.6761L16.0353 18.7833L19.11 16.8547C19.5341 16.6404 19.7462 16.319 19.7462 15.9976C19.7462 16.319 19.4281 16.6404 19.11 16.8547Z" fill="black"/>
<path opacity="0.25" d="M6.81122 7.74785L19.11 15.1407C19.5341 15.355 19.7462 15.6764 19.7462 15.9978C19.7462 15.6764 19.5341 15.355 19.11 15.0336L6.81122 7.74785C5.857 7.10499 5.22086 7.53356 5.22086 8.60499V8.71213C5.22086 7.6407 5.857 7.21213 6.81122 7.74785Z" fill="white"/>
</g>
<defs>
<linearGradient id="paint0_linear_1_419" x1="10.0955" y1="8.48569" x2="3.24499" y2="15.6102" gradientUnits="userSpaceOnUse">
<stop stop-color="#00A0FF"/>
<stop offset="0.007" stop-color="#00A1FF"/>
<stop offset="0.26" stop-color="#00BEFF"/>
<stop offset="0.512" stop-color="#00D2FF"/>
<stop offset="0.76" stop-color="#00DFFF"/>
<stop offset="1" stop-color="#00E3FF"/>
</linearGradient>
<linearGradient id="paint1_linear_1_419" x1="20.2257" y1="16.0413" x2="4.98498" y2="16.0413" gradientUnits="userSpaceOnUse">
<stop stop-color="#FFE000"/>
<stop offset="0.409" stop-color="#FFBD00"/>
<stop offset="0.775" stop-color="#FFA500"/>
<stop offset="1" stop-color="#FF9C00"/>
</linearGradient>
<linearGradient id="paint2_linear_1_419" x1="13.9446" y1="17.894" x2="2.06916" y2="30.2277" gradientUnits="userSpaceOnUse">
<stop stop-color="#FF3A44"/>
<stop offset="1" stop-color="#C31162"/>
</linearGradient>
<linearGradient id="paint3_linear_1_419" x1="2.88975" y1="6.51909" x2="8.17728" y2="12" gradientUnits="userSpaceOnUse">
<stop stop-color="#32A071"/>
<stop offset="0.069" stop-color="#2DA771"/>
<stop offset="0.476" stop-color="#15CF74"/>
<stop offset="0.801" stop-color="#06E775"/>
<stop offset="1" stop-color="#00F076"/>
</linearGradient>
<clipPath id="clip0_1_419">
<rect width="88" height="30" fill="white" transform="translate(0.34375 0.890625)"/>
</clipPath>
</defs>
</svg>
