<svg width="100" height="100" viewBox="0 0 100 100" fill="none" xmlns="http://www.w3.org/2000/svg">
<g clip-path="url(#clip0_1_132)">
<path d="M49.9668 100C77.5415 100 99.9336 77.608 99.9336 50.0332C100 22.392 77.608 0 49.9668 0C22.3256 0 0 22.392 0 50.0332C0 77.608 22.392 100 49.9668 100Z" fill="#BE0F34"/>
<path d="M49.9668 90.6974C72.4253 90.6974 90.6977 72.4914 90.6977 49.9665C90.6977 27.4415 72.4917 9.302 49.9668 9.302C27.5083 9.302 9.30237 27.508 9.30237 50.0329C9.30237 72.5578 27.5083 90.6974 49.9668 90.6974Z" fill="white"/>
<path d="M25.5815 23.1892H34.8174V52.8902C34.8174 54.7507 35.4154 56.4118 38.0067 56.4118C40.3988 56.4118 41.1297 54.2856 41.1297 52.6244V23.1892H50.3655V51.6942C50.3655 58.3387 47.3755 63.5214 37.9403 63.5214C30.0998 63.5214 25.5815 59.8005 25.5815 51.6942V23.1892Z" fill="#BE0F34"/>
<path d="M54.02 76.8104V37.4084H63.2559V68.9035H74.5516V76.8104H54.02Z" fill="#BE0F34"/>
</g>
<defs>
<clipPath id="clip0_1_132">
<rect width="100" height="100" fill="white"/>
</clipPath>
</defs>
</svg>
